<svg width="18" height="20" viewBox="0 0 18 20" fill="none" xmlns="http://www.w3.org/2000/svg">
<path fill-rule="evenodd" clip-rule="evenodd" d="M6.97339 18.4737C6.97339 18.1019 7.27584 17.8006 7.64894 17.8006H10.3511C10.7242 17.8006 11.0267 18.1019 11.0267 18.4737C11.0267 18.8454 10.7242 19.1468 10.3511 19.1468H7.64894C7.27584 19.1468 6.97339 18.8454 6.97339 18.4737Z" fill="#FBA94C"/>
<path fill-rule="evenodd" clip-rule="evenodd" d="M8.15105 0.770938C8.38998 0.574597 8.69009 0.467133 8.99997 0.467133C9.31092 0.467133 9.61205 0.575349 9.85138 0.772999C10.6902 1.45363 12.506 3.14102 13.5106 5.74283C14.5298 8.38242 14.6851 11.8928 12.2902 16.1126C12.1703 16.3238 11.9457 16.4544 11.7022 16.4544H6.29778C6.05635 16.4544 5.83328 16.326 5.71263 16.1176C3.2687 11.8968 3.41835 8.38131 4.44891 5.73766C5.46335 3.13536 7.30218 1.44838 8.15105 0.770938ZM8.99995 1.81825L8.99976 1.8184C8.24211 2.42233 6.60256 3.93115 5.70834 6.22506C4.85402 8.41661 4.65181 11.3923 6.69295 15.1082H11.303C13.301 11.3937 13.0962 8.41868 12.2496 6.2262C11.3655 3.93625 9.75174 2.42861 8.99995 1.81825Z" fill="#00B37E"/>
<path fill-rule="evenodd" clip-rule="evenodd" d="M4.86454 8.48315C5.15091 8.72144 5.18919 9.14591 4.95004 9.43124L2.30406 12.5882C2.30422 12.5889 2.30438 12.5896 2.30454 12.5904L3.34273 17.2747L5.87571 15.2557C6.16705 15.0234 6.59216 15.0705 6.82523 15.3608C7.0583 15.6511 7.01107 16.0746 6.71973 16.3069L4.18643 18.3262C4.0074 18.4687 3.79461 18.5638 3.56869 18.6019C3.34276 18.6401 3.1108 18.6204 2.89462 18.5447C2.67844 18.469 2.48514 18.3397 2.3329 18.1691C2.18066 17.9984 2.07448 17.792 2.02436 17.5692L2.02389 17.5671L0.986976 12.8885C0.93831 12.6883 0.937597 12.4795 0.984969 12.2789C1.03283 12.0762 1.12841 11.8878 1.26376 11.7292L3.913 8.56834C4.15215 8.28301 4.57817 8.24487 4.86454 8.48315Z" fill="#00B37E"/>
<path fill-rule="evenodd" clip-rule="evenodd" d="M13.0852 8.41538C13.3719 8.1774 13.7978 8.21598 14.0367 8.50156L16.7364 11.7295C16.8716 11.888 16.9671 12.0763 17.0149 12.2789C17.0623 12.4795 17.0616 12.6883 17.0129 12.8885L15.976 17.5671L15.9755 17.5692C15.9254 17.792 15.8192 17.9984 15.667 18.1691C15.5148 18.3397 15.3215 18.469 15.1053 18.5447C14.8891 18.6204 14.6571 18.6401 14.4312 18.6019C14.2053 18.5638 13.9928 18.4689 13.8138 18.3264L11.2802 16.3069C10.9888 16.0746 10.9416 15.6511 11.1747 15.3608C11.4077 15.0705 11.8329 15.0234 12.1242 15.2557L14.6572 17.2747L15.6954 12.5903C15.6955 12.5896 15.6957 12.5889 15.6958 12.5882L12.9987 9.36338C12.7599 9.0778 12.7986 8.65336 13.0852 8.41538Z" fill="#00B37E"/>
<path d="M8.99989 8.71373C9.55953 8.71373 10.0132 8.26169 10.0132 7.70408C10.0132 7.14646 9.55953 6.69443 8.99989 6.69443C8.44025 6.69443 7.98657 7.14646 7.98657 7.70408C7.98657 8.26169 8.44025 8.71373 8.99989 8.71373Z" fill="#FBA94C"/>
</svg>
